<svg xmlns="http://www.w3.org/2000/svg" xmlns:xlink="http://www.w3.org/1999/xlink" width="400" zoomAndPan="magnify" viewBox="0 0 300 149.999998" height="200" preserveAspectRatio="xMidYMid meet" version="1.0"><defs><clipPath id="6cb4dd9788"><path d="M 0 19.875 L 300 19.875 L 300 135.375 L 0 135.375 Z M 0 19.875 " clip-rule="nonzero"/></clipPath><clipPath id="7eba529073"><path d="M 31.28125 25.519531 L 76.28125 25.519531 L 76.28125 70.519531 L 31.28125 70.519531 Z M 31.28125 25.519531 " clip-rule="nonzero"/></clipPath></defs><g clip-path="url(#6cb4dd9788)"><path fill="#000000" d="M 295.859375 75.296875 C 290.871094 68.636719 281.308594 66.183594 274.097656 65.289062 C 273.972656 65.257812 273.84375 65.257812 273.6875 65.226562 C 271.273438 64.941406 269.113281 64.8125 267.394531 64.78125 C 267.238281 64.78125 267.046875 64.78125 266.917969 64.78125 C 266.824219 64.78125 266.699219 64.78125 266.601562 64.78125 C 266.507812 64.78125 266.410156 64.78125 266.316406 64.78125 C 243.125 64.78125 221.652344 78.324219 204.402344 89.226562 C 201.921875 90.789062 199.542969 92.285156 197.253906 93.6875 C 197.222656 93.6875 197.222656 93.71875 197.191406 93.71875 C 196.363281 94.230469 195.539062 94.738281 194.710938 95.21875 C 189.058594 98.46875 184.132812 100.09375 180.003906 100.09375 C 178.605469 100.09375 174.890625 100.09375 174.890625 86.484375 C 174.890625 83.585938 175.113281 79.761719 175.621094 73.671875 C 175.90625 70.230469 175.398438 67.808594 174.03125 66.34375 C 173.078125 65.324219 171.777344 64.78125 170.125 64.78125 C 166.566406 64.78125 163.199219 67.457031 160.117188 72.71875 C 159.992188 72.90625 159.894531 73.097656 159.769531 73.289062 C 159.738281 73.324219 159.738281 73.355469 159.703125 73.386719 C 159.007812 74.628906 158.339844 76 157.671875 77.53125 C 156.082031 81.164062 154.621094 85.496094 153.382812 90.117188 C 153.414062 88.8125 153.414062 87.570312 153.414062 86.484375 C 153.414062 80.652344 153.445312 74.535156 153.574219 68.511719 C 158.117188 66.851562 162.339844 62.390625 165.519531 55.855469 C 168.664062 49.453125 170.441406 41.675781 170.441406 34.566406 C 170.441406 34.375 170.441406 34.21875 170.441406 34.058594 C 170.441406 33.960938 170.441406 33.867188 170.441406 33.769531 C 170.441406 33.675781 170.441406 33.578125 170.441406 33.484375 C 170.441406 33.386719 170.441406 33.292969 170.441406 33.195312 C 170.441406 33.070312 170.441406 32.972656 170.410156 32.847656 C 169.996094 25.007812 166.441406 19.875 161.292969 19.875 C 157.703125 19.875 154.75 21.660156 152.527344 25.164062 C 150.523438 28.289062 149.0625 32.75 147.984375 38.902344 C 146.363281 48.144531 145.855469 60.0625 145.726562 75.679688 C 145.695312 75.777344 145.664062 75.839844 145.632812 75.9375 C 144.804688 81.703125 141.945312 85.113281 137.5 85.625 C 134.671875 85.941406 131.621094 84.957031 129.273438 83.171875 C 128.191406 81.164062 126.984375 79.410156 125.777344 78.453125 C 125.808594 75.710938 125.839844 72.941406 125.871094 70.199219 C 128.476562 67.648438 130.796875 64.972656 132.863281 62.230469 C 139.46875 53.402344 142.804688 44.097656 142.804688 34.597656 C 142.804688 34.40625 142.804688 34.25 142.804688 34.089844 C 142.804688 33.992188 142.804688 33.898438 142.804688 33.800781 C 142.804688 33.707031 142.804688 33.613281 142.804688 33.515625 C 142.804688 33.421875 142.804688 33.324219 142.804688 33.230469 C 142.804688 33.101562 142.804688 33.003906 142.773438 32.878906 C 142.265625 25.007812 138.707031 19.875 133.558594 19.875 C 129.96875 19.875 127.015625 21.660156 124.792969 25.164062 C 122.792969 28.289062 121.296875 32.75 120.25 38.902344 C 118.660156 47.953125 118.152344 59.554688 117.996094 74.660156 C 114.5 77.433594 110.59375 80.109375 106.335938 82.660156 C 85.78125 94.898438 58.78125 102.230469 34.066406 102.292969 C 33.96875 102.261719 33.84375 102.230469 33.714844 102.230469 C 27.871094 102.230469 13.636719 101.335938 7.476562 93.144531 C 4.457031 89.164062 3.855469 83.933594 5.632812 77.625 C 5.632812 77.59375 5.632812 77.59375 5.632812 77.5625 C 5.824219 76.734375 5.378906 76 4.519531 75.746094 C 3.566406 75.457031 2.328125 75.777344 2.011719 76.734375 C 1.980469 76.796875 1.980469 76.890625 1.980469 76.957031 C 0.0742188 83.585938 0.804688 89.195312 4.140625 93.65625 C 11.445312 103.410156 28.601562 104.171875 33.683594 104.171875 C 46.167969 104.171875 59.480469 102.324219 72.25 98.851562 C 84.894531 95.410156 96.996094 90.339844 107.289062 84.222656 C 111.132812 81.925781 114.691406 79.503906 117.960938 76.988281 C 117.929688 79.378906 117.929688 81.832031 117.929688 84.414062 C 117.929688 98.214844 118.058594 111.375 119.710938 120.492188 C 120.851562 126.867188 123.269531 135.375 130.957031 135.375 C 135.402344 135.375 138.261719 130.46875 138.613281 122.402344 C 138.613281 122.210938 138.613281 122.019531 138.644531 121.796875 C 138.644531 121.449219 138.644531 121.097656 138.644531 120.746094 C 138.644531 113.863281 136.960938 104.363281 134.164062 95.3125 C 133.625 93.59375 132.386719 89.800781 130.765625 86.199219 C 132.925781 87.21875 135.371094 87.695312 137.691406 87.441406 C 141.214844 87.058594 143.949219 85.082031 145.664062 81.894531 C 145.664062 82.722656 145.664062 83.554688 145.664062 84.414062 C 145.664062 89.097656 145.1875 98.5625 144.871094 103.027344 C 144.871094 103.027344 144.871094 103.058594 144.871094 103.058594 C 144.871094 103.089844 144.871094 103.089844 144.871094 103.121094 C 144.871094 103.152344 144.871094 103.183594 144.871094 103.21875 C 144.871094 103.34375 144.902344 103.441406 144.964844 103.535156 C 144.964844 103.566406 144.996094 103.601562 144.996094 103.601562 C 144.996094 103.601562 145.027344 103.632812 145.027344 103.664062 C 145.058594 103.695312 145.058594 103.695312 145.09375 103.726562 C 145.125 103.757812 145.125 103.757812 145.15625 103.789062 C 145.1875 103.824219 145.1875 103.824219 145.21875 103.855469 C 145.25 103.886719 145.25 103.886719 145.28125 103.886719 C 145.3125 103.917969 145.347656 103.917969 145.378906 103.949219 C 145.410156 103.949219 145.410156 103.980469 145.441406 103.980469 C 145.472656 103.980469 145.503906 104.015625 145.503906 104.015625 C 145.535156 104.015625 145.570312 104.015625 145.570312 104.046875 C 145.601562 104.046875 145.632812 104.046875 145.664062 104.046875 C 145.664062 104.046875 145.695312 104.046875 145.695312 104.046875 C 145.726562 104.046875 145.726562 104.046875 145.757812 104.046875 C 147.886719 104.046875 151.382812 102.644531 152.558594 101.75 C 152.589844 101.75 152.589844 101.71875 152.621094 101.71875 C 152.621094 101.71875 152.652344 101.71875 152.652344 101.6875 C 152.683594 101.6875 152.683594 101.65625 152.714844 101.625 C 152.746094 101.59375 152.746094 101.59375 152.78125 101.558594 C 152.78125 101.558594 152.8125 101.527344 152.8125 101.527344 C 152.84375 101.496094 152.84375 101.496094 152.875 101.464844 C 152.90625 101.433594 152.9375 101.367188 152.9375 101.304688 C 152.9375 101.304688 152.9375 101.273438 152.9375 101.273438 C 152.9375 101.242188 152.9375 101.210938 152.96875 101.210938 C 152.96875 101.210938 152.96875 101.175781 152.96875 101.175781 C 152.96875 101.175781 152.96875 101.175781 152.96875 101.144531 C 154.335938 92.828125 156.65625 84.476562 159.386719 78.261719 C 159.960938 76.988281 160.59375 75.679688 161.292969 74.375 C 161.324219 74.308594 161.355469 74.246094 161.386719 74.183594 C 161.546875 73.894531 161.738281 73.578125 161.898438 73.289062 C 161.898438 73.257812 161.929688 73.257812 161.929688 73.226562 C 163.230469 71.15625 165.296875 68.734375 166.980469 68.734375 C 167.394531 68.734375 167.582031 68.859375 167.679688 68.988281 C 167.933594 69.242188 168.28125 70.007812 168.058594 72.238281 C 167.996094 73.003906 167.871094 73.960938 167.773438 74.949219 C 167.457031 77.785156 167.042969 81.289062 167.042969 84.414062 C 167.042969 100.667969 172.601562 104.078125 177.273438 104.078125 C 182.292969 104.078125 188.484375 101.050781 195.917969 96.621094 C 195.953125 96.621094 195.984375 96.589844 195.984375 96.589844 C 196.585938 96.238281 197.191406 95.855469 197.824219 95.472656 C 197.859375 95.441406 197.890625 95.441406 197.921875 95.410156 C 197.984375 95.378906 198.078125 95.3125 198.144531 95.28125 C 200.429688 93.878906 202.8125 92.382812 205.292969 90.820312 C 222.351562 80.046875 243.570312 66.660156 266.222656 66.660156 C 266.378906 66.660156 266.539062 66.660156 266.699219 66.660156 C 266.761719 66.660156 266.792969 66.660156 266.855469 66.660156 C 266.984375 66.660156 267.109375 66.660156 267.238281 66.660156 C 268.792969 66.691406 270.984375 66.789062 273.464844 67.074219 C 273.527344 67.074219 273.558594 67.074219 273.621094 67.109375 C 280.136719 67.90625 288.171875 70.101562 292.429688 75.710938 C 295.445312 79.695312 296.050781 84.921875 294.273438 91.234375 C 294.273438 91.265625 294.273438 91.265625 294.273438 91.296875 C 294.082031 92.125 294.527344 92.859375 295.382812 93.113281 C 295.605469 93.179688 295.828125 93.210938 296.082031 93.210938 C 296.8125 93.210938 297.574219 92.890625 297.859375 92.253906 C 297.859375 92.222656 297.894531 92.191406 297.894531 92.15625 C 297.894531 92.15625 297.894531 92.125 297.894531 92.125 C 299.925781 85.464844 299.226562 79.792969 295.859375 75.296875 Z M 155.289062 41.226562 C 156.8125 29.660156 159.484375 23.828125 163.199219 23.828125 C 166.660156 23.828125 168.378906 28.449219 168.632812 33.386719 C 168.632812 33.546875 168.632812 33.707031 168.664062 33.867188 C 168.664062 33.960938 168.664062 34.027344 168.664062 34.121094 C 168.664062 34.21875 168.664062 34.28125 168.664062 34.375 C 168.664062 34.472656 168.664062 34.535156 168.664062 34.632812 C 168.664062 48.558594 161.800781 62.933594 153.667969 66.535156 C 153.890625 57.195312 154.335938 48.304688 155.289062 41.226562 Z M 127.554688 41.226562 C 129.082031 29.660156 131.75 23.828125 135.464844 23.828125 C 138.929688 23.828125 140.644531 28.449219 140.898438 33.386719 C 140.898438 33.546875 140.898438 33.707031 140.929688 33.867188 C 140.929688 33.960938 140.929688 34.027344 140.929688 34.121094 C 140.929688 34.21875 140.929688 34.28125 140.929688 34.375 C 140.929688 34.472656 140.929688 34.535156 140.929688 34.632812 C 140.929688 46.167969 135.71875 57.417969 125.9375 67.554688 C 126.125 57.863281 126.601562 48.558594 127.554688 41.226562 Z M 132.386719 95.917969 C 135.148438 104.8125 136.769531 114.085938 136.769531 120.808594 C 136.769531 120.90625 136.769531 121.03125 136.769531 121.128906 C 136.769531 121.289062 136.769531 121.480469 136.769531 121.636719 C 136.769531 121.671875 136.769531 121.671875 136.769531 121.703125 C 136.738281 122.339844 136.707031 122.976562 136.671875 123.613281 C 136.671875 123.710938 136.671875 123.773438 136.640625 123.871094 C 136.640625 123.902344 136.640625 123.902344 136.640625 123.933594 C 136.195312 128.585938 134.671875 131.421875 132.511719 131.421875 C 126.285156 131.421875 125.746094 109.242188 125.746094 86.515625 C 125.746094 85.148438 125.746094 83.777344 125.746094 82.375 C 126.347656 83.136719 127.046875 83.808594 127.84375 84.445312 C 129.367188 87.3125 130.957031 91.296875 132.386719 95.917969 Z M 132.386719 95.917969 " fill-opacity="1" fill-rule="nonzero"/></g><g clip-path="url(#7eba529073)"><path fill="#ffffff" d="M 31.28125 25.519531 L 76.28125 25.519531 L 76.28125 70.519531 L 31.28125 70.519531 Z M 31.28125 25.519531 " fill-opacity="1" fill-rule="nonzero"/></g></svg>