<?xml version="1.0" encoding="UTF-8"?><svg xmlns="http://www.w3.org/2000/svg" xmlns:xlink="http://www.w3.org/1999/xlink" fill="none" height="26.1" preserveAspectRatio="xMidYMid meet" style="fill: none;" version="1.0" viewBox="0.5 0.5 546.5 26.1" width="546.5" zoomAndPan="magnify"><path d="M0.5 12.5H205.5" stroke="#000" stroke-width="2"/><path d="M342 13H547" stroke="#000" stroke-width="2"/><path d="M273.94 26C273.94 26 264.057 20.6078 259.895 14.7255C255.733 8.84314 258.855 1 265.097 1C271.339 1 273.94 6.39216 273.94 6.39216C273.94 6.39216 277.258 1 283.5 1C289.742 1 292.831 8.45098 289.026 14.7255C285.221 21 273.94 26 273.94 26Z" stroke="#000"/><path d="M317.777 21C317.777 21 312.335 17.549 310.043 13.7843C307.752 10.0196 309.471 5 312.908 5C316.345 5 317.777 8.45098 317.777 8.45098C317.777 8.45098 319.604 5 323.041 5C326.478 5 328.179 9.76863 326.084 13.7843C323.989 17.8 317.777 21 317.777 21Z" stroke="#000"/><path d="M227.777 21C227.777 21 222.335 17.549 220.043 13.7843C217.752 10.0196 219.471 5 222.908 5C226.345 5 227.777 8.45098 227.777 8.45098C227.777 8.45098 229.604 5 233.041 5C236.478 5 238.179 9.76863 236.084 13.7843C233.989 17.8 227.777 21 227.777 21Z" stroke="#000"/></svg>