<?xml version="1.0" encoding="UTF-8"?><svg xmlns="http://www.w3.org/2000/svg" xmlns:xlink="http://www.w3.org/1999/xlink" height="494.5" preserveAspectRatio="xMidYMid meet" version="1.0" viewBox="-0.4 -0.1 494.5 494.5" width="494.5" zoomAndPan="magnify"><g data-name="Layer 34" id="change1_1"><path d="M162.24,14.68c0-5.17,4.2-8.26,9.1-6.69.54.18,1.07.37,1.59.6a7.16,7.16,0,0,1,4.48,7.49A7.72,7.72,0,0,1,172,22.81a7.37,7.37,0,0,1-8.19-3.13A8.46,8.46,0,0,1,162.24,14.68Zm202.6,63.77a9.58,9.58,0,0,1-9.53-9.51c0-4.95,4.05-9.32,8.67-9.36,5.12,0,10,4.7,10,9.76A9.17,9.17,0,0,1,364.84,78.45ZM328.09,82c-3.39,0-6-2.27-6-5.29a6.48,6.48,0,0,1,6.08-6.45,6.28,6.28,0,0,1,6.22,6A6,6,0,0,1,328.09,82ZM81.55,87.8c-5,0-8.74-3.28-8.89-7.84a7.45,7.45,0,0,1,5.73-7.7,9.5,9.5,0,0,1,9.08,2.34A7.58,7.58,0,0,1,89.21,83,8.17,8.17,0,0,1,81.55,87.8Zm350-39.52a3.72,3.72,0,0,0-.73-.19q-10.87,0-21.75,0a2.82,2.82,0,0,0-1.46.23,19,19,0,0,0-7.31,6.37,6.4,6.4,0,0,0-.67,5.73c.94,2.6,3.28,3.51,5.66,2.11A7.54,7.54,0,0,0,409.13,57c.16-1.08.56-1.32,1.5-.82A3.52,3.52,0,0,1,412,57.5a6.77,6.77,0,0,1,.87,5.12A10.13,10.13,0,0,1,402,70.34c-1.57-.18-1.73-.11-1.78,1.41-.16,4.57-7.64,7.74-11.3,4.47a15.06,15.06,0,0,1-2.82-3.45,4.68,4.68,0,0,0-1.64-2,10.54,10.54,0,0,0-.3,5.52c.58,4.41,2.23,8.51,3.88,12.6A41.6,41.6,0,0,1,390.75,97c.07.43-.19,1,.48,1.26a3.92,3.92,0,0,0,.5-.39c6.72-7.54,14.06-14.49,21.35-21.46a6.8,6.8,0,0,0,2-3.61,40.8,40.8,0,0,1,14.56-23Zm13.86,14.25c-.56.09-.7.44-.91.71a41.21,41.21,0,0,1-24.3,15.49,4.74,4.74,0,0,0-2.49,1.5c-7.18,7.4-14.23,14.94-21.95,21.8a3.8,3.8,0,0,0-.44.71c4.71.5,8.75,2.67,13,4.23a43.22,43.22,0,0,0,8.18,2.36,14.64,14.64,0,0,0,6.25,0c0-.85-.64-1-1.09-1.32a20.64,20.64,0,0,1-3.31-2.31,6.5,6.5,0,0,1-1.68-7.56c1.07-3,3.06-4.69,6.3-4.79a1.67,1.67,0,0,0,.56-.26c-.08-.66-.19-1.3-.23-1.93a10.19,10.19,0,0,1,6.42-9.89,7.07,7.07,0,0,1,6.17.29,3.67,3.67,0,0,1,1.77,1.79c.32.74.05,1.15-.78,1.23a7.3,7.3,0,0,0-5.74,3.89c-1.41,2.36-.45,4.72,2.14,5.65a6.64,6.64,0,0,0,6.27-1,19,19,0,0,0,5-5.5,6.26,6.26,0,0,0,1.06-3.6c0-6.54,0-13.09,0-19.63A4.12,4.12,0,0,0,445.39,62.53Zm-20.67,75.81a9.64,9.64,0,0,1-9.55-9.51,9.19,9.19,0,0,1,9.15-9.09,10.22,10.22,0,0,1,9.74,9.94C434,134.33,429.7,138.34,424.72,138.34Zm-7.25,21a6.17,6.17,0,0,1,5.93,6.06,6.38,6.38,0,0,1-6.33,6.16c-3.14,0-5.46-2.62-5.4-6.12A5.91,5.91,0,0,1,417.47,159.38ZM368.26,27.58q-47.38,0-94.77,0a4,4,0,0,0-3.3,1.37c-3.77,4-10.39,2.28-12.47-3.11a6.15,6.15,0,0,1,4.41-8.45c3.42-.78,6.46.08,8.53,3A3.53,3.53,0,0,0,274,21.9q58.17.11,116.33.26c25.26.06,50.51.21,75.77.21,4.32,0,5.15,1.48,5.15,5.11q.15,77.59.39,155.18c0,12.31.13,24.61.14,36.92a3.77,3.77,0,0,0,1.64,3.55,7.84,7.84,0,0,1,2.72,8.78,6.1,6.1,0,0,1-8.32,4c-6.29-2.54-6.85-9.62-2.72-12.89a2.59,2.59,0,0,0,.9-2.43c0-5.49,0-11,0-16.44q-.22-86.66-.48-173.32c0-3.1.27-2.77-2.71-2.77H368.26Zm117.83,297.3c0,3.83-3.09,6.64-7.16,6.6-4.59-.05-8.44-3.72-8.35-8a7.66,7.66,0,0,1,7.89-7.32C483.76,316.28,486,321.25,486.09,324.88Zm-64.44,87.87c0,4.21-2.4,7.37-6,8.09a7.83,7.83,0,0,1-9.1-5,9.33,9.33,0,0,1-.08-7.08,7.29,7.29,0,0,1,6.43-4.89A7.42,7.42,0,0,1,420,407.4,9.4,9.4,0,0,1,421.65,412.75Zm1-18.54a29,29,0,0,1-6.93,2.77,50.31,50.31,0,0,1-22.83-.59,6.37,6.37,0,0,1-1.4-.52,1.94,1.94,0,0,1-.4-3.45,18.93,18.93,0,0,1,2.89-1.8,119.19,119.19,0,0,0,23.65-16.7,93,93,0,0,0,18.12-22.54,22.32,22.32,0,0,0,2-4.68,198.05,198.05,0,0,0,7.09-32.48,35.54,35.54,0,0,0,.22-4.26q.06-27.75.1-55.51c0-8.53.1-17.07.14-25.61a6.87,6.87,0,0,0-.17-2.47c-.8.33-1.08,1.09-1.52,1.65a20.85,20.85,0,0,1-17.16,8.44,18,18,0,0,1-18.15-16.66c-.44-4.9.35-9.51,3.72-13.38a2.48,2.48,0,0,0,.27-.66c-7.06-1.39-12.52-5.3-17.15-10.53a21.31,21.31,0,0,1-4.29-7.08,4.83,4.83,0,0,1-.41-2.71,1.27,1.27,0,0,1,.68-1c.52-.21.77.21,1,.54s.58.81.88,1.21a44.24,44.24,0,0,0,12.78,11.48A22.59,22.59,0,0,0,418,201c2.06,0,4.12-.13,6.18-.15.47,0,1.09-.11,1.34.41s-.24,1.11-.65,1.42a31.29,31.29,0,0,0-5.68,5.76,12.48,12.48,0,0,0-2.71,8.36,10,10,0,0,0,15.29,8.08A17.73,17.73,0,0,0,436,221a53.9,53.9,0,0,0,6.53-11,28.94,28.94,0,0,0,2.89-13.14c-.09-32.37,0-64.75.07-97.13v-3c-3.63,2.76-7.37,4.31-11.45,4.25-.43.36-.29.65-.26.92a11.14,11.14,0,0,1-7.55,12.37c-3.75,1.35-7.57,1.1-11.37.24a59.73,59.73,0,0,1-10.82-3.9,60.07,60.07,0,0,0-7.11-2.88,7.82,7.82,0,0,0-2.78-.35.56.56,0,0,0,.36.66c9.79,5.7,13.87,15.64,10.89,26.59-.3,1.1-.67,2.17-1.06,3.24A35.06,35.06,0,0,0,406,167a25.15,25.15,0,0,0,7.4,9,11.64,11.64,0,0,0,4.76,2.32,6.28,6.28,0,0,0,6.39-2A18.21,18.21,0,0,0,429,162.84a8.16,8.16,0,0,0-5.56-7.43c-1.66-.63-3.37-1.11-5.06-1.66-.41-.13-.82-.23-1.22-.4-.58-.26-1.26-.55-1.25-1.3s.68-1.06,1.29-1.25c4.14-1.25,10.26-1.6,14.52,2.8a16.81,16.81,0,0,1,4.68,10.52,26,26,0,0,1-3.13,15.25c-4.31,7.75-12.56,10.47-20.67,6.87a24.56,24.56,0,0,1-8.63-6.5,36.27,36.27,0,0,1-9.13-28.4,5.3,5.3,0,0,0,0-.71c-.74-.24-1.18.36-1.67.64a14.73,14.73,0,0,1-9.24,1.89c-6.28-.83-10.74-7-9.4-12.94.92-4.15,4.68-7.13,8.62-6.78a6.45,6.45,0,0,1,5.22,3.26,5.29,5.29,0,0,1-.4,6c-.41.51-.85,1-1.57.92s-1-.76-1.11-1.41a12.58,12.58,0,0,0-.53-2.05,2.45,2.45,0,0,0-4.31-.67,4.16,4.16,0,0,0-1,4,6.67,6.67,0,0,0,5.33,4.93,7.92,7.92,0,0,0,4.21-.29c4.5-1.77,7.95-4.57,9.37-9.45a25.72,25.72,0,0,0,.5-14.31,15.87,15.87,0,0,0-4.24-7.53c-3.56-3.36-8.68-4.86-13.5-.17-4.54,4.42-9,8.87-13.91,12.93a1.72,1.72,0,0,0-.79,1.41c.06,4.41-1.62,8.34-3.39,12.24Q350,172,320.74,183.86a51.52,51.52,0,0,1-9.93,3.18,10.73,10.73,0,0,1-1.69.23,2.48,2.48,0,0,1-2.73-3,25.78,25.78,0,0,1,1.28-5.61c6.59-19.11,17.71-34.59,35.79-44.46a76.61,76.61,0,0,1,11.93-5.67,21.06,21.06,0,0,1,6.87-1.38,2.4,2.4,0,0,0,2-1c3.87-4.65,8.08-9,12.34-13.29,4.73-4.77,4.42-10.5-.74-14.83-4-3.34-8.74-4.25-13.78-4.11a29.73,29.73,0,0,0-8.94,1.88c-4.13,1.45-8.23,7.63-8,12a6.77,6.77,0,0,0,4.48,6.18,4.37,4.37,0,0,0,4.43-.67c1.8-1.49,1.44-3.69-.74-4.52-.66-.25-1.39-.31-2.07-.51-1.37-.42-1.59-1.35-.58-2.36a5.38,5.38,0,0,1,6.88-.3,7,7,0,0,1,2,8.64,9.22,9.22,0,0,1-10.16,4.93,11.57,11.57,0,0,1-8.84-13.75,20.58,20.58,0,0,1,2.66-6.4,5.42,5.42,0,0,0-2.58-.08,36.6,36.6,0,0,1-24.92-7.75,28.81,28.81,0,0,1-6.43-6.79,19,19,0,0,1-3.09-7.21c-1.16-6.44.81-11.77,6.14-15.52a24.6,24.6,0,0,1,20.54-3.8,14.3,14.3,0,0,1,3.18,1.22c7.51,3.8,8.71,10.41,6.9,17.13a2.84,2.84,0,0,1-.36.77c-.63,1-1.32,1.08-1.94.09a8.24,8.24,0,0,1-.72-1.76,47.87,47.87,0,0,0-1.82-5.46,8.26,8.26,0,0,0-7.44-5.23,18.57,18.57,0,0,0-12.59,3.84c-2.92,2.2-3.62,5.15-2.25,8.55a16.39,16.39,0,0,0,3.75,5.41,31.25,31.25,0,0,0,17.28,8.65,35.53,35.53,0,0,0,19.28-1.94c7.43-2.86,14.75-2.75,21.71,1.55a20.19,20.19,0,0,1,7.74,8.33,1.37,1.37,0,0,0,.78.91,9.56,9.56,0,0,0-.63-3.86,69.12,69.12,0,0,0-2.86-6.9c-1.93-4.44-3.75-8.92-4.31-13.79a17.61,17.61,0,0,1,.75-7.8c2.08-6,8.09-9.09,12.64-7.7a3.09,3.09,0,0,0,.8,0,17,17,0,0,1,4-11.37c-.55-.61-1.16-.39-1.68-.39q-51.35.09-102.69.21a7,7,0,0,0-2.53.29c-5.59,2.13-11.08,4.47-15.92,8.09A21.21,21.21,0,0,0,269.45,61a10.13,10.13,0,0,0,.94,13.43c2.67,2.7,6,3.1,9.49,2.51a11.2,11.2,0,0,0,5-2.2,27.51,27.51,0,0,0,5.54-5.29c.49-.66,1.05-1.65,2-1.25s.58,1.38.47,2.15a39.45,39.45,0,0,0-.22,5.75,22.76,22.76,0,0,0,2.81,10.84,43.38,43.38,0,0,0,12,13.7c.39.31.81.58,1.2.88s.71.58.5,1.06a1.15,1.15,0,0,1-1,.63,5.51,5.51,0,0,1-2.31-.28,17.58,17.58,0,0,1-5.28-2.74c-6.12-4.64-10.74-10.34-12.46-18a3,3,0,0,0-.24-.54.44.44,0,0,0-.6,0c-6,4.75-12.6,4.85-19.33,2.12-7.46-3-11.73-11-10.66-19.08A21.31,21.31,0,0,1,266,49.79l1-.78a1.7,1.7,0,0,0,.2-.26c-.64-.6-1.44-.35-2.14-.35-10,0-20.07.05-30.1.06-15.38,0-30.75.15-46.12,0a106.17,106.17,0,0,0-19.91,2,214.51,214.51,0,0,0-21.52,5.31,25.4,25.4,0,0,0-5.66,2.46c-12.65,7.36-22.81,17.37-31.17,29.29a126.85,126.85,0,0,0-7.1,11.41c-.52.94-1,1.87-1.58,2.79s-1.22,1.87-2.46,1.74-1.69-1.16-2-2.22c-.08-.28-.19-.55-.25-.82a50,50,0,0,1-.6-22,23.91,23.91,0,0,1,2.91-7.32,13.66,13.66,0,0,0-3.37-1,221.56,221.56,0,0,1-21.51-6.91,4.61,4.61,0,0,1-1.13-.57,1.54,1.54,0,0,1-.63-1.69,1.65,1.65,0,0,1,1.31-1.27,4.9,4.9,0,0,1,1.27,0,155,155,0,0,0,29-.39,198.36,198.36,0,0,0,38.47-7.46c2.51-.75,5-1.61,7.5-2.42.38-.13.85-.14,1.08-.79h-2.32q-66.91.15-133.85.3a4.26,4.26,0,0,0-3.66,1.54,6.81,6.81,0,0,1-8,1.44A6.54,6.54,0,0,1,.08,44.91a6.2,6.2,0,0,1,4.69-5.26c2.74-.82,5.38-.38,7.18,1.89a4.18,4.18,0,0,0,3.83,1.6Q52.83,43,89.86,43h2.5a5,5,0,0,0-2-1.25,27.78,27.78,0,0,1-10.2-8.25c-3.43-4.7-5-9.91-3.65-15.69C78.48,9.3,88.09,4.22,96.26,7.2c5.8,2.12,9.54,8.25,8.51,14a3.24,3.24,0,0,1-2.15,3c-.16-1-.25-2-.48-2.93-1-4.11-3-7.42-7.22-8.83a9.65,9.65,0,0,0-10.09,2.28c-2.89,2.63-3.42,5.95-2.54,9.59a15.12,15.12,0,0,0,4.21,7.29A25.6,25.6,0,0,0,97,37.8a108,108,0,0,0,18.57,3.84,160.83,160.83,0,0,0,21.71,1.26l83.26-.14a5.11,5.11,0,0,0,2.12-.15c-.12-.7-.76-.57-1.15-.69a104.94,104.94,0,0,0-29.77-5,164.47,164.47,0,0,0-24.9,1.53,21.22,21.22,0,0,1-2.76.2,2.49,2.49,0,0,1-2.59-1.51,2.46,2.46,0,0,1,.73-2.73,20,20,0,0,1,2.41-2.09c5.17-3.76,10.74-6.7,17.14-7.75,1.19-.2,1.28-.7,1-1.74-2.47-10.68,4.33-18.5,11.59-22.19A6.09,6.09,0,0,1,196,.07a2.6,2.6,0,0,1,3.31,2.41,6.86,6.86,0,0,1-.1,1.69A24,24,0,0,0,204,22.46a36.38,36.38,0,0,0,11.63,9.88,81.16,81.16,0,0,0,19.43,7.55c3.85,1,7.75,1.82,11.68,2.48a23.25,23.25,0,0,0,3.83.24l194.91-.28a24.29,24.29,0,0,1,2.56,0,3.35,3.35,0,0,1,3.29,3.28,19.1,19.1,0,0,1,0,2.14q-.18,94.79-.43,189.57a77.44,77.44,0,0,0,2.2,18.79A90.15,90.15,0,0,0,460,275.61a41.11,41.11,0,0,0,8.27,11.58,25.81,25.81,0,0,0,15.91,7.46,17.53,17.53,0,0,0,3.62-.06,21.11,21.11,0,0,1,3-.24c2.25,0,3.32,1.57,2.69,3.75a4.49,4.49,0,0,1-.29.8c-3.67,7-8.91,11.75-17.13,12.41a17.76,17.76,0,0,1-5.08-.45c-1.56-.33-1.62-.33-1.92,1.31-1.17,6.38-4.12,11.92-7.9,17.08a15.55,15.55,0,0,1-2,2.22,2.36,2.36,0,0,1-2.73.64,2.42,2.42,0,0,1-1.42-2.42,39.37,39.37,0,0,1,.34-4.47,139.87,139.87,0,0,0,1.18-27.89,105.51,105.51,0,0,0-4.88-25.5,1.19,1.19,0,0,0-.6-.72c0,.51-.12,1-.12,1.54-.07,29-.22,58.06-.17,87.1a132.19,132.19,0,0,0,4.51,35,27.58,27.58,0,0,0,6.37,11.92,15.58,15.58,0,0,0,8.58,4.84,9.24,9.24,0,0,0,10.37-4.94A9.85,9.85,0,0,0,479,395a12.62,12.62,0,0,0-7.77-3.64c-.54-.05-1.14.11-1.71-.39a2.5,2.5,0,0,1,1.89-1.74,9.53,9.53,0,0,1,5.47-.19,13.49,13.49,0,0,1,10.35,15.24,15.31,15.31,0,0,1-19,13,21.59,21.59,0,0,1-11.07-6.46,31.51,31.51,0,0,1-5.2-7.53c-.27-.53-.32-1.23-1.24-1.69v2q0,37.46-.13,74.93a3.35,3.35,0,0,0,1.38,3.05,6.84,6.84,0,0,1,1.6,8.7,6.44,6.44,0,0,1-7.4,3.27,6.14,6.14,0,0,1-4.76-4.69,6.42,6.42,0,0,1,2-6.81,3.85,3.85,0,0,0,1.48-3.26q.1-67.36.26-134.71v-1.53c-.74.15-.71.71-.85,1.13A197.28,197.28,0,0,0,434.75,386a193.17,193.17,0,0,0-1.23,24.29c0,2.49.23,5,.43,7.45a10.87,10.87,0,0,1,0,1.71,1.64,1.64,0,0,1-3,.65,10.85,10.85,0,0,1-.75-1.75,196.47,196.47,0,0,1-7.23-23.2A7.88,7.88,0,0,0,422.65,394.21Z" fill="#ffc764"/></g></svg>